<?xml version="1.0" standalone="no"?>
<!DOCTYPE svg PUBLIC "-//W3C//DTD SVG 20010904//EN"
 "http://www.w3.org/TR/2001/REC-SVG-20010904/DTD/svg10.dtd">
<svg version="1.0" xmlns="http://www.w3.org/2000/svg"
 width="1000.000000pt" height="1000.000000pt" viewBox="0 0 1000.000000 1000.000000"
 preserveAspectRatio="xMidYMid meet">
<metadata>
Created by potrace 1.14, written by Peter Selinger 2001-2017
</metadata>
<g transform="translate(0.000000,1000.000000) scale(0.100000,-0.100000)"
fill="#000000" stroke="none">
<path d="M1100 5000 l0 -2350 345 0 345 0 0 613 0 614 388 6 c508 8 706 27
972 93 386 94 663 236 876 449 180 180 308 406 373 660 69 272 74 716 10 1010
-89 412 -318 737 -666 941 -275 162 -644 267 -1068 303 -69 6 -432 11 -847 11
l-728 0 0 -2350z m1421 2030 c436 -43 750 -191 940 -442 134 -179 217 -410
249 -693 15 -134 12 -417 -5 -552 -72 -552 -366 -915 -861 -1061 -214 -64
-546 -97 -899 -90 l-150 3 -3 1423 -2 1422 314 0 c173 0 360 -5 417 -10z"/>
<path d="M5390 5503 c406 -1017 828 -2073 938 -2348 l200 -500 371 -3 c204 -1
371 1 371 6 0 5 -38 100 -85 212 l-84 204 898 2138 898 2138 -180 -2 -180 -3
-802 -1908 c-441 -1049 -804 -1909 -806 -1912 -3 -2 -352 856 -776 1908 l-771
1912 -365 3 -365 2 738 -1847z"/>
</g>
</svg>
