<svg xmlns="http://www.w3.org/2000/svg" viewBox="0 0 52.5 52.51"><defs><style>.cls-1{fill:#2a292a;}</style></defs><g id="Слой_2" data-name="Слой 2"><g id="Слой_1-2" data-name="Слой 1"><path class="cls-1" d="M49,45.61H40.73A11,11,0,0,0,43.88,42a17.35,17.35,0,0,0,.3-16.17,10.57,10.57,0,0,0-7.33-6,23.17,23.17,0,0,0-6-.36c-.76,0-1.55,0-2.32,0a.37.37,0,0,0-.15,0,3.16,3.16,0,0,0-2.54,3.31q0,8.76,0,17.5c0,1.25,0,2.49,0,3.73l0,1.53H21.15A8.59,8.59,0,0,0,22,33.88c-.13-.18-.13-.23,0-.4A8.3,8.3,0,0,0,23.68,30a1.25,1.25,0,0,0-.11-1,.93.93,0,0,0-.6-.39c-.58-.11-1,.25-1.19.94a6.86,6.86,0,0,1-1.32,2.78,1.91,1.91,0,0,0,0,2.7,6.74,6.74,0,0,1-2.82,10.51c-.5,0-1,0-1.51.06a11.81,11.81,0,0,1-3.26-.1c-2.45-.56-4.55-3.56-4.4-6.31A1.17,1.17,0,0,1,9.6,38.06h0a1.1,1.1,0,0,1,1.16,1c0,.1,0,.2,0,.28a2,2,0,0,0,0,.34,4.19,4.19,0,0,0,2.84,3.61,4.1,4.1,0,0,0,4.46-.9A4.19,4.19,0,0,0,19.36,38a4.32,4.32,0,0,0-4-3.08c-.86,0-1.38-.52-1.36-1.23s.54-1.13,1.43-1.18a4.4,4.4,0,0,0,4.09-4.9,4.42,4.42,0,0,0-1.86-3,4.39,4.39,0,0,0-6.78,2.76,1.16,1.16,0,0,1-1.45.9,1.19,1.19,0,0,1-.85-1.44,6.63,6.63,0,0,1,3.1-4.39,6.74,6.74,0,0,1,9.91,3.69c.12.35.29.82.84.84.22,0,.74-.07.89-.35a1.56,1.56,0,0,0,.11-1.1,8.68,8.68,0,0,0-16.76.95,3.13,3.13,0,0,0,6.06,1.52,2.17,2.17,0,0,0,.07-.24c0-.11.06-.22.1-.34a2.4,2.4,0,0,1,2.33-1.63,2.43,2.43,0,0,1,2,3.79,2.55,2.55,0,0,1-1.94,1.05A3.44,3.44,0,0,0,12.52,32a3,3,0,0,0-.28,2.7,3.19,3.19,0,0,0,3.1,2.12,2.39,2.39,0,0,1,1.56,4.07,2.23,2.23,0,0,1-2.53.58,2.44,2.44,0,0,1-1.62-2.41,3,3,0,0,0-3.28-3,3.13,3.13,0,0,0-3,3.21,8.51,8.51,0,0,0,2,5.42c.23.28.47.53.74.8l0,.06H3.59a3.14,3.14,0,0,0-2.54,1,6.2,6.2,0,0,0-.74,1.27c-.1.18-.19.37-.28.55l0,1.22.08.26.17.42a3.52,3.52,0,0,0,3.52,2.17H49.19A3.45,3.45,0,0,0,49,45.61Zm-45.11,2H48.65a2,2,0,0,1,1.52.51,1.29,1.29,0,0,1,.38,1c0,.94-.71,1.49-1.88,1.49H3.87A3.59,3.59,0,0,1,3,50.48a1.47,1.47,0,0,1,.08-2.86A3.84,3.84,0,0,1,3.86,47.56ZM27.8,22.92c0-1.14.41-1.54,1.55-1.54h4.28a9.26,9.26,0,0,1,9.26,6.23,15.47,15.47,0,0,1-.48,13,9.22,9.22,0,0,1-5.67,4.91,2.25,2.25,0,0,1-.68.11H28.52c-.38,0-.5-.15-.56-.39a4.55,4.55,0,0,1-.15-1c0-2.81,0-5.61,0-8.42Z"/><path class="cls-1" d="M52.39,7.29a3.07,3.07,0,0,0-3.17-2.22H32a.57.57,0,0,1-.23,0,.33.33,0,0,1-.12,0c-.28-1.39-1.36-1.52-2.28-1.48H27.24v0c0-.13,0-.25,0-.35A3.24,3.24,0,0,0,25.63.57a4.74,4.74,0,0,0-.93-.4L24.3,0,11.19,0l-.58.18a3.42,3.42,0,0,0-2.42,3.4c0,1.2,0,2.4,0,3.6V9.25h-5A1.15,1.15,0,0,1,2,8.1,1.12,1.12,0,0,1,3.19,7H5.43a1.15,1.15,0,0,0,.87-.32A.91.91,0,0,0,6.56,6c0-.58-.43-.92-1.13-.93s-1.55,0-2.34,0a3.05,3.05,0,0,0-3,2.13.77.77,0,0,1-.07.16l0,.09L0,8.66l.05.17A.51.51,0,0,1,.12,9,3.11,3.11,0,0,0,3,11.19h.44a2.91,2.91,0,0,1,0,.4,6.68,6.68,0,0,0,.14,1.21,3.31,3.31,0,0,0,6.5-.56,7.85,7.85,0,0,0,0-.84v-.17H20.83c.17.92.63,1.22,1,1.29.55.13.68.48.86,1l0,.09c.09.24.19.47.29.7l.33.85A1.64,1.64,0,0,0,25,16.27l.27,0v.41c0,.2,0,.39,0,.59a1.17,1.17,0,0,0,.35.89.84.84,0,0,0,.62.23h0c.56,0,.92-.44.94-1.12,0-.28,0-.56,0-.85v-.17a2,2,0,0,0,2.12-1.66,13,13,0,0,1,.55-1.39l.13-.29a1.62,1.62,0,0,1,.1-.2,1.8,1.8,0,0,0,1.55-1.53H49.09a2.79,2.79,0,0,0,.5,0A3.16,3.16,0,0,0,52,9.87,3.05,3.05,0,0,0,52.39,7.29ZM7.56,13.09a1.23,1.23,0,0,1-1.44.05c-.71-.43-.73-1.11-.68-1.91H8.17C8.22,12,8.24,12.65,7.56,13.09Zm13.24-8H12.58a.92.92,0,0,0-.81.89.89.89,0,0,0,.69,1,2.54,2.54,0,0,0,.66.06h7.67v2.2H10.15c0-.1,0-.19,0-.28V3.69A1.53,1.53,0,0,1,11.87,2H23.61a1.67,1.67,0,0,1,1.27.48,1.51,1.51,0,0,1,.35,1.09h-2.3A1.84,1.84,0,0,0,20.8,5.07Zm7.11,7.87c-.18.47-.36.91-.53,1.33a.5.5,0,0,1-.16.05c-.61,0-1.26,0-1.92,0a.4.4,0,0,1-.22-.16c-.16-.37-.32-.77-.49-1.18l-.08-.23H28Zm1.81-2.2H22.81V5.51h6.91Zm19.56-1.5H31.7V7H49.1a3,3,0,0,1,.68.05,1.1,1.1,0,0,1,0,2.09A1.68,1.68,0,0,1,49.28,9.24Z"/><path class="cls-1" d="M41.57,35.08a11,11,0,0,1-1.75,5.25,6.9,6.9,0,0,1-6,3.23H31.33a1,1,0,0,1-1.1-1.07c0-2.32,0-4.65,0-7a1,1,0,1,1,1.94,0c0,1.46,0,2.91,0,4.36v1.69c3.42.28,5.94-.49,7.15-4.94A11.54,11.54,0,0,0,39,29.42a5.22,5.22,0,0,0-5.25-3.72H32.15v5.77a1.62,1.62,0,0,1-.34,1.17.88.88,0,0,1-.65.22c-.63,0-.95-.47-.95-1.37q0-3.25,0-6.51a1,1,0,0,1,1.21-1.22h.95a19.32,19.32,0,0,1,2.74.11,6.62,6.62,0,0,1,5.27,3.92A13.22,13.22,0,0,1,41.57,35.08Z"/></g></g></svg>