<svg xmlns="http://www.w3.org/2000/svg" viewBox="0 0 52.12 47.4"><defs><style>.cls-1{fill:#2a292a;}</style></defs><g id="Слой_2" data-name="Слой 2"><g id="Слой_1-2" data-name="Слой 1"><path class="cls-1" d="M51.84,8.09a1.36,1.36,0,0,0-1-.34h-1.3c-.85,0-1.71,0-2.57,0a.55.55,0,0,1-.32-.19A2.91,2.91,0,0,0,44,6H40c-.25,0-.31,0-.38-.29a7.56,7.56,0,0,0-1.83-3.38,2.07,2.07,0,0,0-1.57-.65c-.6,0-1.21,0-1.82,0-1,0-2,0-2.92,0-.53,0-.69-.11-.83-.6C30.39.12,30.11,0,29.1,0h-22A5.37,5.37,0,0,0,3.8,1.1,9.31,9.31,0,0,0,.12,7.69a10.05,10.05,0,0,0,2.44,7.66,7,7,0,0,0,3.3,2.18s0,0,0,.06L4.87,21,2.62,29c-.06.22-.12.27-.33.32A2.78,2.78,0,0,0,0,32.08c0,.35,0,.71,0,1.07v.34a2.87,2.87,0,0,0,3.14,3.15H6.89v.72c0,.69,0,1.35,0,2a7.35,7.35,0,0,0,5.44,7.37,13.57,13.57,0,0,0,4.2.65,16.42,16.42,0,0,0,2.67-.23c4.65-.78,7.24-3.77,7.11-8.2,0-1.08,0-2.13.05-3.1a4.93,4.93,0,0,1,3.3-4.5,11.27,11.27,0,0,1,6.82-.47c3.44.75,4.84,2.5,4.84,6v.87c0,.75,0,1.51,0,2.26a1.31,1.31,0,0,0,.34.94,1.05,1.05,0,0,0,.76.27h0c.39,0,1-.18,1.06-1.21V39.2c0-1,0-2.12,0-3.18A7,7,0,0,0,39,29.38a13.36,13.36,0,0,0-9.38-.33,7.35,7.35,0,0,0-5.42,6.88c0,.83,0,1.67,0,2.49V39.6a4.9,4.9,0,0,1-3.39,4.85,11.38,11.38,0,0,1-7.89.12,4.9,4.9,0,0,1-3.4-3.11A10,10,0,0,1,9.09,38c0-.44,0-.9,0-1.36h4A2.81,2.81,0,0,0,16,33.87c0-.32,0-.63,0-.95v-.35c0-1.87-.59-2.71-2.33-3.25l.85-3h1.85a2,2,0,0,0,2.18-1.65c.27-1,.54-2,.84-3.28a2,2,0,0,0-.3-1.69,2,2,0,0,0-1.6-.74h-.88s0,0,0-.06a3.89,3.89,0,0,0,.18-.73c0-.38.16-.47.63-.47h0q4.66,0,9.33,0h2.46a1.23,1.23,0,0,0,1.44-1l0-.09a1.71,1.71,0,0,0,.09-.3c0-.23.08-.29.42-.3.89,0,1.78,0,2.67,0h2.28a2.24,2.24,0,0,0,1.75-.74,7.46,7.46,0,0,0,1.78-3.34c.06-.21.11-.25.32-.24,1.37,0,2.73,0,4.09,0a2.73,2.73,0,0,0,2.5-1.48c.11-.21.17-.26.45-.25,1.21,0,2.41,0,3.62,0h.15c1.13,0,1.3-.69,1.31-1.1A1,1,0,0,0,51.84,8.09ZM13.07,34.43H2.92c-.48,0-.68-.2-.71-.7s0-1.07,0-1.59.22-.66.73-.66h10c.67,0,.83.16.84.82,0,.48,0,1,0,1.44S13.55,34.43,13.07,34.43Zm1.38-16.11-1.72,6.11-.2.72Q12,27.09,11.42,29a1.31,1.31,0,0,1-.13.23c-1.84,0-3.68,0-5.56,0H4.84L6.33,24Q7.17,21,8,18c.08-.28.14-.32.41-.33,1.61,0,3.22,0,4.86,0h1.35Zm2.62,2.83h.07l-.13.52L16.42,24a.51.51,0,0,1-.15.07c-.33,0-.66,0-1,0h-.12l.15-.54c.13-.47.25-.93.38-1.39C16,21.13,16,21.12,17.07,21.15Zm12-6.74-.36,1.09H22.81c-4.92,0-10,0-15,0h0a4.29,4.29,0,0,1-3.49-1.59C.75,9.82,2.34,5.56,4.78,3.15A3.38,3.38,0,0,1,7.27,2.2h0l8.6,0,12.43,0c.34,0,.43.07.54.4.41,1.28.84,2.56,1.27,3.84l.69,2.07a.93.93,0,0,1,.08.41C30.31,10.75,29.7,12.57,29.08,14.41Zm8-1.76a3.27,3.27,0,0,1-.33.56l-.12.18a.79.79,0,0,1-.74.4h0l-1.93,0H31.62l.32-1c.35-1.08.7-2.13,1.06-3.17A2.24,2.24,0,0,0,33,8c-.36-1-.7-2.07-1.06-3.13l-.32-1h.83c1.28,0,2.48,0,3.71,0a.86.86,0,0,1,.41.36A7.84,7.84,0,0,1,37.83,8,9,9,0,0,1,37.05,12.65ZM44,9.47H40.08V8.25H44c.68,0,.76.35.76.61C44.75,9.26,44.5,9.47,44,9.47Z"/><path class="cls-1" d="M10.57,8.83A2.58,2.58,0,1,1,8,6.27,2.6,2.6,0,0,1,10.57,8.83Z"/></g></g></svg>