<svg xmlns="http://www.w3.org/2000/svg" viewBox="0 0 54.8 54.8"><defs><style>.cls-1{fill:#2a292a;}</style></defs><g id="Слой_2" data-name="Слой 2"><g id="Слой_1-2" data-name="Слой 1"><path class="cls-1" d="M54.8,31.35c-.14.93-.24,1.87-.41,2.79a24.42,24.42,0,0,1-6.27,12.29,25.83,25.83,0,0,1-9.06,6.48,23.82,23.82,0,0,1-11.91,1.74c-1.08-.11-2.13-.39-3.2-.59a1.25,1.25,0,0,1-1-1,23.36,23.36,0,0,1-.57-8.37,23.7,23.7,0,0,1,4.38-11.44A25.49,25.49,0,0,1,42.14,22.75a22.93,22.93,0,0,1,10.8.14,1.36,1.36,0,0,1,1.15,1.16c.19,1.21.4,2.42.6,3.63,0,.16.07.31.11.46Zm-23.22-.46a23.45,23.45,0,0,0-6,9.14,21.89,21.89,0,0,0-.94,10.72l.17-.1q3.27-3.27,6.53-6.55a1,1,0,0,0,.22-.67c0-3.4,0-6.81,0-10.21Zm2.14,10.82.3-.26q3.31-3.31,6.6-6.62a1.12,1.12,0,0,0,.26-.7c0-2.76,0-5.53,0-8.29v-.52l-.46.13a22.32,22.32,0,0,0-6.31,3.28.84.84,0,0,0-.41.77q0,5.84,0,11.65Zm16-.89-.15-.16H38.11a.92.92,0,0,0-.53.28Q34.79,43.72,32,46.51c-.1.09-.17.2-.28.32l.21,0H44.3a.89.89,0,0,0,.55-.24,25.37,25.37,0,0,0,2.06-2.09c1-1.2,1.9-2.47,2.84-3.71M40.21,38.5l.13,0c3.37,0,6.74,0,10.11,0,.32,0,.41-.15.52-.4A21.6,21.6,0,0,0,52.64,30c0-1.23-.14-2.46-.22-3.68ZM41.62,49H29.75a.8.8,0,0,0-.49.25c-.67.64-1.3,1.31-2,1.95-.35.34-.75.64-1.12,1l.16.2A21.29,21.29,0,0,0,41.62,49m1.45-24.23v7.4l7.55-7.55a21.52,21.52,0,0,0-7.55.15"/><path class="cls-1" d="M42.07,0a18.56,18.56,0,0,1,2.36.76A7.8,7.8,0,0,1,48.9,8.94a7.87,7.87,0,0,1-15.63-.38A7.83,7.83,0,0,1,39.9.1a2.44,2.44,0,0,0,.24-.1ZM35.41,7.88a5.7,5.7,0,1,0,5.67-5.74,5.75,5.75,0,0,0-5.67,5.74"/><path class="cls-1" d="M26,0a16.57,16.57,0,0,1,2.26.73A12.48,12.48,0,0,1,30.4,2.14,1.08,1.08,0,1,1,29,3.73,5.72,5.72,0,0,0,19.5,6.42a5.73,5.73,0,0,0,9.36,5.69,2.09,2.09,0,0,1,1.07-.48.91.91,0,0,1,.9.7,1,1,0,0,1-.36,1.2A13.74,13.74,0,0,1,28,15.14,7.86,7.86,0,1,1,23.85.1a2.44,2.44,0,0,0,.24-.1Z"/><path class="cls-1" d="M14,0c.24.27.6.5.71.81a1,1,0,0,1-1.1,1.33H8V6.77h3.47a3.07,3.07,0,0,1,.8.09,1,1,0,0,1,.75,1,1,1,0,0,1-.75,1,2.63,2.63,0,0,1-.74.09H8v4.63h5.66a1.07,1.07,0,1,1,0,2.14H7a1.07,1.07,0,0,1-1.16-1.17c0-4.46,0-8.92,0-13.37A1.33,1.33,0,0,1,6.54,0Z"/><path class="cls-1" d="M19.91,28.2c0,4.1,0,8.09,0,12.09a.85.85,0,0,0,.23.5c.26.31.58.58.86.88a1.08,1.08,0,1,1-1.54,1.5c-1.52-1.5-3-3-4.53-4.54a1.62,1.62,0,0,0-1.26-.53c-3.24,0-6.49,0-9.85,0,.34.71.62,1.4,1,2A24.21,24.21,0,0,0,18.49,51.62l.4.14a1.08,1.08,0,1,1-.71,2c-.51-.14-1-.32-1.52-.51A26.06,26.06,0,0,1,6.31,46,24.64,24.64,0,0,1,.9,36.25a22.13,22.13,0,0,1-.78-8.41C.26,26.56.54,25.28.74,24a1.29,1.29,0,0,1,1.08-1.1,21.9,21.9,0,0,1,5.87-.71A24.11,24.11,0,0,1,19.6,25.43,26.66,26.66,0,0,1,25,29.56a1.1,1.1,0,0,1,.13,1.65,1.12,1.12,0,0,1-1.62-.08c-1.07-.92-2.15-1.82-3.23-2.72a2.76,2.76,0,0,0-.34-.21M12.64,25c0,2.74,0,5.42,0,8.09a.87.87,0,0,0,.28.53q2.23,2.26,4.49,4.51a3.54,3.54,0,0,0,.36.28c0-3.79,0-7.49,0-11.2a.53.53,0,0,0-.24-.4A20.47,20.47,0,0,0,12.64,25m-9.58,11H12L2.45,26.41a21.34,21.34,0,0,0,.61,9.51m7.42-11.38a23,23,0,0,0-6.27.08l6.27,6.28Z"/><path class="cls-1" d="M19.68,50.19a12.93,12.93,0,0,1-1.9-.67c-1.5-.77-3-1.59-4.43-2.44a1.08,1.08,0,0,1-.47-1.62,1.12,1.12,0,0,1,1.66-.16,20.31,20.31,0,0,0,5.51,2.75,1.43,1.43,0,0,1,.56.29,1,1,0,0,1,.31,1.16c-.17.46-.52.7-1.24.69"/><path class="cls-1" d="M25.25,24.19c-.2.26-.37.66-.67.8a1.14,1.14,0,0,1-1,0A33.16,33.16,0,0,1,21,22.46,1,1,0,0,1,22.46,21c.87.8,1.7,1.66,2.52,2.51.13.13.15.35.27.67"/><path class="cls-1" d="M34,22.08a1.73,1.73,0,0,1-.28.57c-.72.77-1.46,1.51-2.22,2.23a1.06,1.06,0,0,1-1.5,0,1,1,0,0,1,0-1.49c.7-.75,1.44-1.48,2.18-2.2A1,1,0,0,1,33.33,21,1.11,1.11,0,0,1,34,22.08"/><path class="cls-1" d="M28.48,20.8c0,.5,0,1,0,1.49a1.07,1.07,0,1,1-2.14,0c0-1,0-2,0-3a1.06,1.06,0,1,1,2.12,0c0,.5,0,1,0,1.5"/><path class="cls-1" d="M11.08,42.69a1,1,0,0,1,1,1.11,1.07,1.07,0,0,1-1.08,1,1.12,1.12,0,0,1-1-1.07,1.09,1.09,0,0,1,1.1-1.07"/></g></g></svg>