<svg width="47" height="57" viewBox="0 0 47 57" fill="none" xmlns="http://www.w3.org/2000/svg">
<g clip-path="url(#clip0_19_742)">
<path fill-rule="evenodd" clip-rule="evenodd" d="M22.4 29.2V52.6C22.4 54.9 24.2 56.8 26.6 56.8C28.9 56.8 30.8 55 30.8 52.6C30.8 51.8 30 51.3 29.2 51.3C28.4 51.3 27.6 51.8 27.6 52.6C27.6 53.4 27.1 53.9 26.6 53.9C26.1 53.9 25.6 53.4 25.6 52.6V28.9C26.6 28.4 28 28.1 29 28.1C31.4 28.1 33.5 28.9 34.8 30.2C36.4 28.9 38.5 28.1 40.6 28.1C42.9 28.1 45 28.9 46.6 30.5C46.3 21.3 40.8 13.4 32.9 9.8C32.1 10.3 31.3 10.8 30.5 10.8C30.5 12.1 30.2 13.1 29.7 13.9C28.7 15.5 26.8 16 25.3 15.2C24.5 14.9 24.3 14.7 23.7 14.2C22.7 15.5 20.8 15.8 19.2 15.2C17.4 14.4 16.6 12.3 17.6 10.5C16.8 10.2 16.3 9.7 16 9C6.9 11.8 0.3 20.5 0 30.5C1.6 28.9 3.7 28.1 6 28.1C8.1 28.1 10.2 28.9 11.8 30.2C13.1 28.9 15.2 28.1 17.6 28.1C18.9 28.1 20.5 28.4 21.5 29.2H22.4Z" fill="#292929"/>
<path fill-rule="evenodd" clip-rule="evenodd" d="M19.2001 3.4C19.7001 2.9 19.7001 0 19.7001 0C19.7001 0 16.8001 1.6 16.5001 2.3C16.0001 2.8 16.2001 3.6 17.0001 3.9C17.9001 4.2 18.9001 4.2 19.2001 3.4Z" fill="url(#paint0_linear_19_742)"/>
<path fill-rule="evenodd" clip-rule="evenodd" d="M25.9998 13.4C26.7998 13.7 27.5998 13.4 28.0998 12.9C28.3998 12.1 28.3998 9.5 28.3998 9.5C28.3998 9.5 25.7998 11.1 25.2998 11.6C24.6998 12.3 25.2998 13.1 25.9998 13.4Z" fill="url(#paint1_linear_19_742)"/>
<path fill-rule="evenodd" clip-rule="evenodd" d="M20.0004 13.4C20.8004 13.7 21.8004 13.4 22.1004 12.9C22.6004 12.1 22.6004 9.5 22.6004 9.5C22.6004 9.5 19.7004 11.1 19.5004 11.6C18.9004 12.3 19.2004 13.1 20.0004 13.4Z" fill="url(#paint2_linear_19_742)"/>
<path fill-rule="evenodd" clip-rule="evenodd" d="M31.3003 8.09995C31.8003 7.59995 31.8003 4.69995 31.8003 4.69995C31.8003 4.69995 28.9003 6.19995 28.7003 6.99995C28.2003 7.49995 28.4003 8.29995 29.2003 8.59995C30.0003 8.89995 31.0003 8.69995 31.3003 8.09995Z" fill="url(#paint3_linear_19_742)"/>
<path fill-rule="evenodd" clip-rule="evenodd" d="M24.5004 8.70005C25.3004 9.00005 26.1004 8.70005 26.6004 8.20005C26.9004 7.70005 26.9004 4.80005 26.9004 4.80005C26.9004 4.80005 24.3004 6.30005 23.8004 7.10005C23.4004 7.60005 23.7004 8.40005 24.5004 8.70005Z" fill="url(#paint4_linear_19_742)"/>
<path fill-rule="evenodd" clip-rule="evenodd" d="M18.3998 8.69995C19.1998 8.99995 20.1998 8.69995 20.4998 8.19995C20.9998 7.59995 20.9998 4.69995 20.9998 4.69995C20.9998 4.69995 18.0998 6.19995 17.8998 6.99995C17.2998 7.59995 17.5998 8.39995 18.3998 8.69995Z" fill="url(#paint5_linear_19_742)"/>
<path fill-rule="evenodd" clip-rule="evenodd" d="M29.2003 3.9C30.0003 4.2 31.0003 4.2 31.3003 3.4C31.8003 2.9 31.8003 0 31.8003 0C31.8003 0 28.9003 1.6 28.7003 2.3C28.2003 2.9 28.4003 3.7 29.2003 3.9Z" fill="url(#paint6_linear_19_742)"/>
<path fill-rule="evenodd" clip-rule="evenodd" d="M25.3005 3.4C25.5005 2.9 25.5005 0 25.5005 0C25.5005 0 22.6005 1.6 22.4005 2.3C21.9005 2.8 22.4005 3.6 22.9005 3.9C23.7005 4.2 24.7005 4.2 25.3005 3.4Z" fill="url(#paint7_linear_19_742)"/>
</g>
<defs>
<linearGradient id="paint0_linear_19_742" x1="16.2866" y1="2.0434" x2="19.7301" y2="2.0434" gradientUnits="userSpaceOnUse">
<stop stop-color="#C8D1D6"/>
<stop offset="0.028652" stop-color="#B3BCC2"/>
<stop offset="0.0929634" stop-color="#899399"/>
<stop offset="0.1557" stop-color="#687379"/>
<stop offset="0.2157" stop-color="#515C62"/>
<stop offset="0.2716" stop-color="#434E55"/>
<stop offset="0.3195" stop-color="#3E4950"/>
<stop offset="0.4035" stop-color="#697379"/>
<stop offset="0.5094" stop-color="#9AA2A6"/>
<stop offset="0.6028" stop-color="#BDC4C7"/>
<stop offset="0.6792" stop-color="#D2D8DC"/>
<stop offset="0.7288" stop-color="#DAE0E3"/>
<stop offset="0.7772" stop-color="#D4DBDE"/>
<stop offset="0.8429" stop-color="#C2CCD1"/>
<stop offset="0.9187" stop-color="#A6B4BC"/>
<stop offset="1" stop-color="#7F949F"/>
</linearGradient>
<linearGradient id="paint1_linear_19_742" x1="25.0391" y1="11.4552" x2="28.4016" y2="11.4552" gradientUnits="userSpaceOnUse">
<stop stop-color="#C8D1D6"/>
<stop offset="0.028652" stop-color="#B3BCC2"/>
<stop offset="0.0929634" stop-color="#899399"/>
<stop offset="0.1557" stop-color="#687379"/>
<stop offset="0.2157" stop-color="#515C62"/>
<stop offset="0.2716" stop-color="#434E55"/>
<stop offset="0.3195" stop-color="#3E4950"/>
<stop offset="0.4035" stop-color="#697379"/>
<stop offset="0.5094" stop-color="#9AA2A6"/>
<stop offset="0.6028" stop-color="#BDC4C7"/>
<stop offset="0.6792" stop-color="#D2D8DC"/>
<stop offset="0.7288" stop-color="#DAE0E3"/>
<stop offset="0.7772" stop-color="#D4DBDE"/>
<stop offset="0.8429" stop-color="#C2CCD1"/>
<stop offset="0.9187" stop-color="#A6B4BC"/>
<stop offset="1" stop-color="#7F949F"/>
</linearGradient>
<linearGradient id="paint2_linear_19_742" x1="19.1891" y1="11.4552" x2="22.6212" y2="11.4552" gradientUnits="userSpaceOnUse">
<stop stop-color="#C8D1D6"/>
<stop offset="0.028652" stop-color="#B3BCC2"/>
<stop offset="0.0929634" stop-color="#899399"/>
<stop offset="0.1557" stop-color="#687379"/>
<stop offset="0.2157" stop-color="#515C62"/>
<stop offset="0.2716" stop-color="#434E55"/>
<stop offset="0.3195" stop-color="#3E4950"/>
<stop offset="0.4035" stop-color="#697379"/>
<stop offset="0.5094" stop-color="#9AA2A6"/>
<stop offset="0.6028" stop-color="#BDC4C7"/>
<stop offset="0.6792" stop-color="#D2D8DC"/>
<stop offset="0.7288" stop-color="#DAE0E3"/>
<stop offset="0.7772" stop-color="#D4DBDE"/>
<stop offset="0.8429" stop-color="#C2CCD1"/>
<stop offset="0.9187" stop-color="#A6B4BC"/>
<stop offset="1" stop-color="#7F949F"/>
</linearGradient>
<linearGradient id="paint3_linear_19_742" x1="28.3936" y1="6.75335" x2="31.7948" y2="6.75335" gradientUnits="userSpaceOnUse">
<stop stop-color="#C8D1D6"/>
<stop offset="0.028652" stop-color="#B3BCC2"/>
<stop offset="0.0929634" stop-color="#899399"/>
<stop offset="0.1557" stop-color="#687379"/>
<stop offset="0.2157" stop-color="#515C62"/>
<stop offset="0.2716" stop-color="#434E55"/>
<stop offset="0.3195" stop-color="#3E4950"/>
<stop offset="0.4035" stop-color="#697379"/>
<stop offset="0.5094" stop-color="#9AA2A6"/>
<stop offset="0.6028" stop-color="#BDC4C7"/>
<stop offset="0.6792" stop-color="#D2D8DC"/>
<stop offset="0.7288" stop-color="#DAE0E3"/>
<stop offset="0.7772" stop-color="#D4DBDE"/>
<stop offset="0.8429" stop-color="#C2CCD1"/>
<stop offset="0.9187" stop-color="#A6B4BC"/>
<stop offset="1" stop-color="#7F949F"/>
</linearGradient>
<linearGradient id="paint4_linear_19_742" x1="23.575" y1="6.75345" x2="26.8102" y2="6.75345" gradientUnits="userSpaceOnUse">
<stop stop-color="#C8D1D6"/>
<stop offset="0.028652" stop-color="#B3BCC2"/>
<stop offset="0.0929634" stop-color="#899399"/>
<stop offset="0.1557" stop-color="#687379"/>
<stop offset="0.2157" stop-color="#515C62"/>
<stop offset="0.2716" stop-color="#434E55"/>
<stop offset="0.3195" stop-color="#3E4950"/>
<stop offset="0.4035" stop-color="#697379"/>
<stop offset="0.5094" stop-color="#9AA2A6"/>
<stop offset="0.6028" stop-color="#BDC4C7"/>
<stop offset="0.6792" stop-color="#D2D8DC"/>
<stop offset="0.7288" stop-color="#DAE0E3"/>
<stop offset="0.7772" stop-color="#D4DBDE"/>
<stop offset="0.8429" stop-color="#C2CCD1"/>
<stop offset="0.9187" stop-color="#A6B4BC"/>
<stop offset="1" stop-color="#7F949F"/>
</linearGradient>
<linearGradient id="paint5_linear_19_742" x1="17.6087" y1="6.75335" x2="21.0289" y2="6.75335" gradientUnits="userSpaceOnUse">
<stop stop-color="#C8D1D6"/>
<stop offset="0.028652" stop-color="#B3BCC2"/>
<stop offset="0.0929634" stop-color="#899399"/>
<stop offset="0.1557" stop-color="#687379"/>
<stop offset="0.2157" stop-color="#515C62"/>
<stop offset="0.2716" stop-color="#434E55"/>
<stop offset="0.3195" stop-color="#3E4950"/>
<stop offset="0.4035" stop-color="#697379"/>
<stop offset="0.5094" stop-color="#9AA2A6"/>
<stop offset="0.6028" stop-color="#BDC4C7"/>
<stop offset="0.6792" stop-color="#D2D8DC"/>
<stop offset="0.7288" stop-color="#DAE0E3"/>
<stop offset="0.7772" stop-color="#D4DBDE"/>
<stop offset="0.8429" stop-color="#C2CCD1"/>
<stop offset="0.9187" stop-color="#A6B4BC"/>
<stop offset="1" stop-color="#7F949F"/>
</linearGradient>
<linearGradient id="paint6_linear_19_742" x1="28.3936" y1="2.0434" x2="31.7948" y2="2.0434" gradientUnits="userSpaceOnUse">
<stop stop-color="#C8D1D6"/>
<stop offset="0.028652" stop-color="#B3BCC2"/>
<stop offset="0.0929634" stop-color="#899399"/>
<stop offset="0.1557" stop-color="#687379"/>
<stop offset="0.2157" stop-color="#515C62"/>
<stop offset="0.2716" stop-color="#434E55"/>
<stop offset="0.3195" stop-color="#3E4950"/>
<stop offset="0.4035" stop-color="#697379"/>
<stop offset="0.5094" stop-color="#9AA2A6"/>
<stop offset="0.6028" stop-color="#BDC4C7"/>
<stop offset="0.6792" stop-color="#D2D8DC"/>
<stop offset="0.7288" stop-color="#DAE0E3"/>
<stop offset="0.7772" stop-color="#D4DBDE"/>
<stop offset="0.8429" stop-color="#C2CCD1"/>
<stop offset="0.9187" stop-color="#A6B4BC"/>
<stop offset="1" stop-color="#7F949F"/>
</linearGradient>
<linearGradient id="paint7_linear_19_742" x1="22.1433" y1="2.0434" x2="25.5123" y2="2.0434" gradientUnits="userSpaceOnUse">
<stop stop-color="#C8D1D6"/>
<stop offset="0.028652" stop-color="#B3BCC2"/>
<stop offset="0.0929634" stop-color="#899399"/>
<stop offset="0.1557" stop-color="#687379"/>
<stop offset="0.2157" stop-color="#515C62"/>
<stop offset="0.2716" stop-color="#434E55"/>
<stop offset="0.3195" stop-color="#3E4950"/>
<stop offset="0.4035" stop-color="#697379"/>
<stop offset="0.5094" stop-color="#9AA2A6"/>
<stop offset="0.6028" stop-color="#BDC4C7"/>
<stop offset="0.6792" stop-color="#D2D8DC"/>
<stop offset="0.7288" stop-color="#DAE0E3"/>
<stop offset="0.7772" stop-color="#D4DBDE"/>
<stop offset="0.8429" stop-color="#C2CCD1"/>
<stop offset="0.9187" stop-color="#A6B4BC"/>
<stop offset="1" stop-color="#7F949F"/>
</linearGradient>
<clipPath id="clip0_19_742">
<rect width="46.5" height="56.7" fill="white"/>
</clipPath>
</defs>
</svg>
