<svg width="14" height="14" viewBox="0 0 14 14" fill="none" xmlns="http://www.w3.org/2000/svg">
<path d="M6.99974 7.70799L1.75374 12.954C1.66041 13.0473 1.54574 13.0973 1.40974 13.104C1.27374 13.1107 1.15241 13.0607 1.04574 12.954C0.939075 12.8473 0.885742 12.7293 0.885742 12.6C0.885742 12.4707 0.939075 12.3527 1.04574 12.246L6.29174 6.99999L1.04574 1.75399C0.952409 1.66065 0.902409 1.54599 0.895742 1.40999C0.889075 1.27399 0.939075 1.15265 1.04574 1.04599C1.15241 0.93932 1.27041 0.885986 1.39974 0.885986C1.52908 0.885986 1.64708 0.93932 1.75374 1.04599L6.99974 6.29199L12.2457 1.04599C12.3391 0.952653 12.4541 0.902653 12.5907 0.895986C12.7261 0.889319 12.8471 0.93932 12.9537 1.04599C13.0604 1.15265 13.1137 1.27065 13.1137 1.39999C13.1137 1.52932 13.0604 1.64732 12.9537 1.75399L7.70774 6.99999L12.9537 12.246C13.0471 12.3393 13.0971 12.4543 13.1037 12.591C13.1104 12.7263 13.0604 12.8473 12.9537 12.954C12.8471 13.0607 12.7291 13.114 12.5997 13.114C12.4704 13.114 12.3524 13.0607 12.2457 12.954L6.99974 7.70799Z" fill="black"/>
</svg>
