<svg width="28" height="31" viewBox="0 0 28 31" fill="none" xmlns="http://www.w3.org/2000/svg">
<path d="M26.174 10.522C25.9734 10.9658 25.2867 11.7721 22.9411 12.1855C20.5399 12.6087 18.1397 12.6202 15.8076 12.2198C15.177 12.1116 14.5549 11.9733 13.9447 11.806C13.1599 11.5909 12.3947 11.3276 11.6559 11.0182C11.5305 10.9658 11.3844 10.9598 11.2539 11.0008C11.2452 11.0036 11.2366 11.0067 11.228 11.0097C11.0911 11.0604 10.9895 11.1592 10.9514 11.2787C10.6125 12.3437 9.44041 13.0876 8.1011 13.0876C6.47641 13.0876 5.1546 11.9995 5.1546 10.6619C5.1546 9.59605 5.99397 8.68858 7.15709 8.364C7.1799 8.35748 7.20283 8.3514 7.22587 8.34553C7.27197 8.3338 7.31855 8.32272 7.3656 8.31273C7.38914 8.30773 7.41276 8.30295 7.43649 8.2986C7.48396 8.28948 7.53189 8.28144 7.58021 8.27427C7.74934 8.24928 7.92341 8.23625 8.1011 8.23625C8.29451 8.23625 8.48825 8.25189 8.67688 8.28274C8.85964 8.31251 9.04041 8.35726 9.21395 8.41548C9.36971 8.46762 9.52124 8.53172 9.6643 8.60558C9.67056 8.60884 9.67686 8.61189 9.68328 8.61493C10.0988 8.80894 10.5031 9.04031 10.9312 9.28516C11.0446 9.35012 11.1594 9.41573 11.2761 9.48177C12.4043 10.1192 13.7116 10.7812 15.6477 10.9698C15.8715 10.9917 16.1058 11.0071 16.3446 11.0156C16.6048 11.0245 16.8526 11.0288 17.0902 11.0288C19.5025 11.0288 20.813 10.5846 22.0837 10.1537C22.3086 10.0775 22.5213 10.0056 22.7422 9.93518C23.0388 9.84046 23.3254 9.73814 23.6027 9.63907C25.0014 9.13938 25.6158 8.9847 26.0652 9.47395C26.2595 9.68556 26.3684 10.0918 26.174 10.522ZM15.2105 25.3363C15.2105 25.9768 14.5775 26.498 13.7994 26.498H13.3489C13.1293 26.498 12.9358 26.6168 12.8734 26.7901C12.2522 28.5159 10.2898 29.7211 8.1011 29.7211C5.91242 29.7211 3.94996 28.5159 3.32879 26.7901C3.2664 26.6168 3.07294 26.498 2.85332 26.498H2.40276C1.62477 26.498 0.991826 25.9768 0.991826 25.3363V5.7389C0.991826 5.09843 1.62477 4.57746 2.40276 4.57746H2.85332C3.07294 4.57746 3.2664 4.4584 3.32879 4.28525C3.94996 2.55937 5.91242 1.35404 8.1011 1.35404C10.2898 1.35404 12.2522 2.55937 12.8734 4.28525C12.9358 4.4584 13.1293 4.57746 13.3489 4.57746H13.7994C14.5775 4.57746 15.2105 5.09843 15.2105 5.7389V10.0877C15.1835 10.0834 15.1567 10.0788 15.1299 10.0742C15.112 10.0712 15.0939 10.0684 15.0761 10.0653C15.0337 10.0577 14.992 10.0499 14.9504 10.0421C14.9415 10.0403 14.9323 10.0388 14.9234 10.0371C14.8728 10.0271 14.8224 10.0169 14.7729 10.0062C14.7612 10.0036 14.7498 10.001 14.7381 9.99841C14.7004 9.99015 14.663 9.98189 14.6258 9.9732C14.6089 9.96929 14.5923 9.96517 14.5757 9.96125C14.5442 9.95365 14.5128 9.94605 14.4815 9.93822C14.4634 9.93366 14.4456 9.92888 14.4275 9.9241C14.398 9.9165 14.3689 9.9089 14.3399 9.90108C14.3216 9.89608 14.3032 9.89087 14.2851 9.88587C14.2566 9.87805 14.2283 9.87001 14.2003 9.86175C14.1822 9.85654 14.1644 9.85132 14.1465 9.84589C14.1182 9.83764 14.0902 9.82895 14.0622 9.82047C14.0451 9.81504 14.028 9.80983 14.0111 9.8044C13.9821 9.79527 13.9536 9.78593 13.9251 9.77659C13.9095 9.77137 13.8938 9.76638 13.8785 9.76116C13.8472 9.75074 13.8165 9.74009 13.7855 9.72944C13.7731 9.7251 13.7607 9.72075 13.7485 9.71641C13.7069 9.70185 13.6657 9.68686 13.6249 9.67166L13.6208 9.67035C13.5777 9.65428 13.535 9.63798 13.4926 9.62147C13.4842 9.61821 13.4759 9.61473 13.4675 9.61147C13.4344 9.59844 13.4015 9.5854 13.3689 9.57215C13.3557 9.56672 13.3427 9.56129 13.3296 9.55586C13.3019 9.54434 13.2742 9.53283 13.2468 9.52131C13.2323 9.51523 13.2179 9.50893 13.2035 9.50285C13.1777 9.49155 13.1519 9.48047 13.1263 9.46917C13.1115 9.46265 13.0966 9.45614 13.0818 9.4494C13.0569 9.43832 13.032 9.42702 13.0073 9.41594C12.9925 9.40921 12.9777 9.40226 12.963 9.39552C12.9382 9.38401 12.9135 9.3725 12.8889 9.36098C12.8747 9.35425 12.8606 9.34773 12.8465 9.34099C12.8211 9.32882 12.7958 9.31666 12.7706 9.30449C12.7577 9.29819 12.7446 9.29189 12.7317 9.28559C12.7041 9.2719 12.6766 9.25844 12.6493 9.24475C12.639 9.23953 12.6288 9.23454 12.6187 9.22954C12.5432 9.19152 12.4686 9.15307 12.3947 9.11418C12.3855 9.10918 12.3764 9.1044 12.3672 9.09941C12.3398 9.08507 12.3124 9.07051 12.2852 9.05595C12.2723 9.049 12.2595 9.04205 12.2466 9.0351C12.2233 9.0225 12.1999 9.0099 12.1767 8.99708C12.1624 8.98948 12.1482 8.98165 12.134 8.97383C12.1122 8.96188 12.0904 8.94993 12.0687 8.93798C12.054 8.92973 12.0392 8.92169 12.0245 8.91343C12.0034 8.9017 11.9824 8.88997 11.9614 8.87824C11.9465 8.86998 11.9316 8.86151 11.9167 8.85325C11.896 8.84152 11.8753 8.83001 11.8546 8.81828C11.8395 8.8098 11.8245 8.80112 11.8094 8.79264C11.7891 8.78113 11.7689 8.76983 11.7487 8.75831C11.7334 8.74962 11.7182 8.74093 11.703 8.73224C11.684 8.72138 11.665 8.71052 11.6459 8.69966C11.5963 8.67141 11.5468 8.64317 11.4973 8.61471C11.0531 8.36052 10.6334 8.12045 10.1818 7.90906C9.99326 7.81217 9.79377 7.72831 9.58851 7.65944C9.3563 7.58144 9.11449 7.5217 8.86966 7.48172C8.65155 7.44609 8.4285 7.42589 8.20521 7.42089C8.17053 7.42024 8.1358 7.41981 8.1011 7.41981C8.03325 7.41981 7.96577 7.42111 7.89874 7.42393C7.83174 7.42676 7.76513 7.4311 7.69902 7.43653C7.63291 7.44218 7.56725 7.44892 7.50215 7.45717C7.43704 7.46543 7.37244 7.47499 7.30839 7.48585C7.27638 7.49128 7.24453 7.49693 7.21278 7.50301C5.53103 7.82325 4.25825 9.03314 4.16792 10.4953C4.16452 10.5505 4.1628 10.6061 4.1628 10.6619C4.1628 12.4497 5.92952 13.9042 8.1011 13.9042C9.68884 13.9042 11.1009 13.1217 11.7159 11.9511C11.79 11.9796 11.8643 12.0076 11.9388 12.0354C11.9628 12.0443 11.987 12.053 12.0111 12.0619C12.0617 12.0806 12.1123 12.099 12.1631 12.1173C12.192 12.1275 12.221 12.1377 12.25 12.1479C12.2963 12.1642 12.3426 12.1805 12.389 12.1966C12.4198 12.2072 12.4507 12.2177 12.4815 12.2281C12.5265 12.2433 12.5715 12.2585 12.6167 12.2735C12.6483 12.2839 12.6799 12.2944 12.7117 12.3048C12.7564 12.3193 12.8012 12.3337 12.8462 12.348C12.8779 12.358 12.9098 12.3682 12.9417 12.3782C12.9871 12.3923 13.0326 12.4065 13.0782 12.4201C13.1095 12.4297 13.1407 12.4393 13.1721 12.4488C13.2194 12.4629 13.2668 12.4769 13.3142 12.4905C13.3439 12.4992 13.3735 12.5081 13.4032 12.5166C13.455 12.5314 13.5069 12.5459 13.5588 12.5603C13.5844 12.5674 13.6098 12.5746 13.6352 12.5816C13.7054 12.6009 13.7756 12.6196 13.846 12.6381C13.8534 12.64 13.8609 12.6422 13.8683 12.6441C13.9464 12.6646 14.0248 12.6843 14.1031 12.7039C14.1259 12.7095 14.1487 12.715 14.1715 12.7206C14.2271 12.7343 14.2824 12.7478 14.3382 12.7608C14.3677 12.7678 14.3975 12.7747 14.427 12.7814C14.476 12.793 14.5251 12.8043 14.5742 12.8151C14.6065 12.8223 14.6387 12.8295 14.6709 12.8364C14.7178 12.8466 14.7647 12.8568 14.8115 12.8668C14.845 12.874 14.8785 12.8809 14.912 12.8877C14.9581 12.8972 15.0042 12.9068 15.0506 12.9159C15.0843 12.9227 15.118 12.9294 15.152 12.9359C15.1713 12.9398 15.1909 12.9437 15.2105 12.9474V25.3363ZM26.8564 8.98166C26.4173 8.50326 25.815 8.29969 25.0664 8.37616C24.4789 8.43612 23.8616 8.65664 23.2079 8.89019C22.9398 8.986 22.6625 9.08485 22.384 9.1737C22.1534 9.24714 21.9259 9.32427 21.7058 9.39878C20.3496 9.85871 19.0684 10.293 16.3869 10.1998C16.3248 10.1976 16.2633 10.1946 16.2024 10.1915V5.7389C16.2024 4.64828 15.1244 3.76079 13.7994 3.76079H13.7067C13.3147 2.88374 12.6132 2.10097 11.7036 1.53328C10.6599 0.881948 9.41418 0.537598 8.1011 0.537598C6.78803 0.537598 5.54233 0.881948 4.49862 1.53328C3.589 2.10097 2.88754 2.88374 2.49565 3.76079H2.40276C1.07788 3.76079 0 4.64828 0 5.7389V25.3363C0 26.4271 1.07788 27.3144 2.40276 27.3144H2.49565C2.88754 28.1916 3.589 28.9744 4.49862 29.5421C5.54233 30.1934 6.78803 30.5376 8.1011 30.5376C9.41418 30.5376 10.6599 30.1934 11.7036 29.5421C12.6132 28.9744 13.3147 28.1916 13.7067 27.3144H13.7994C15.1244 27.3144 16.2024 26.4271 16.2024 25.3363V13.1125C18.482 13.438 20.8157 13.3952 23.1491 12.9839C24.2585 12.7884 25.1672 12.486 25.8488 12.0851C26.4603 11.7256 26.8828 11.2956 27.1037 10.8068C27.451 10.0379 27.2037 9.3599 26.8564 8.98166Z" fill="#100F0D"/>
</svg>
