<svg width="22" height="28" viewBox="0 0 22 28" fill="none" xmlns="http://www.w3.org/2000/svg">
<path d="M2.88943 17.3437L11.0013 26.629L16.9293 20.037M16.9293 20.037L17.8345 19.0303C21.6192 14.8217 21.6192 7.99768 17.8345 3.78835C14.0492 -0.420986 7.91269 -0.420986 4.12681 3.78835C2.5486 5.54392 1.56359 7.8514 1.33815 10.3211C1.11271 12.7907 1.66065 15.2713 2.88943 17.3437" stroke="black" stroke-linecap="round" stroke-linejoin="round"/>
<path d="M10.9807 14.1234C13.0274 14.1234 14.6865 12.5161 14.6865 10.5334C14.6865 8.55066 13.0274 6.94336 10.9807 6.94336C8.93405 6.94336 7.2749 8.55066 7.2749 10.5334C7.2749 12.5161 8.93405 14.1234 10.9807 14.1234Z" stroke="black" stroke-linecap="round" stroke-linejoin="round"/>
</svg>
