<svg width="29" height="41" viewBox="0 0 29 41" fill="none" xmlns="http://www.w3.org/2000/svg">
<path d="M13.8067 0.624366C14.1509 0.624385 14.4951 0.622799 14.8393 0.619655C19.1193 0.581194 23.2281 1.2335 27.4025 2.27509C27.4025 2.35091 27.4025 2.42672 27.4025 2.50483C27.4701 2.58064 27.5377 2.65646 27.6074 2.73457C27.5398 2.73457 27.4722 2.73457 27.4025 2.73457C27.4025 2.81038 27.4025 2.88619 27.4025 2.96431C27.6054 2.96431 27.8082 2.96431 28.0173 2.96431C28.0173 8.65029 28.0173 14.3363 28.0173 20.1946C27.467 20.0712 27.3439 19.9667 26.9926 19.5054C26.9926 19.4295 26.9926 19.3537 26.9926 19.2756C26.925 19.2756 26.8574 19.2756 26.7877 19.2756C26.7877 19.1998 26.7877 19.124 26.7877 19.0459C26.7201 19.0459 26.6525 19.0459 26.5828 19.0459C26.5828 18.9701 26.5828 18.8943 26.5828 18.8161C26.5152 18.8161 26.4475 18.8161 26.3779 18.8161C26.3102 18.7024 26.2426 18.5887 26.1729 18.4715C25.9619 18.3884 25.9619 18.3884 25.7631 18.3567C25.7631 18.205 25.7631 18.0534 25.7631 17.8972C25.6955 17.8972 25.6278 17.8972 25.5582 17.8972C25.5582 17.8214 25.5582 17.7456 25.5582 17.6675C25.4905 17.6675 25.4229 17.6675 25.3532 17.6675C25.3532 17.5917 25.3532 17.5158 25.3532 17.4377C25.2856 17.4377 25.218 17.4377 25.1483 17.4377C25.1483 17.3619 25.1483 17.2861 25.1483 17.208C25.0807 17.208 25.0131 17.208 24.9434 17.208C24.9434 17.1322 24.9434 17.0564 24.9434 16.9783C24.8758 16.9783 24.8081 16.9783 24.7385 16.9783C24.7385 16.9024 24.7385 16.8266 24.7385 16.7485C24.6708 16.7485 24.6032 16.7485 24.5335 16.7485C24.5335 16.6727 24.5335 16.5969 24.5335 16.5188C24.4659 16.5188 24.3983 16.5188 24.3286 16.5188C24.3286 16.443 24.3286 16.3672 24.3286 16.289C24.261 16.289 24.1934 16.289 24.1237 16.289C24.1237 16.2132 24.1237 16.1374 24.1237 16.0593C24.0561 16.0593 23.9884 16.0593 23.9188 16.0593C23.9188 15.9835 23.9188 15.9077 23.9188 15.8296C23.8512 15.8296 23.7835 15.8296 23.7139 15.8296C23.7139 15.7538 23.7139 15.6779 23.7139 15.5998C23.6462 15.5998 23.5786 15.5998 23.5089 15.5998C23.5089 15.524 23.5089 15.4482 23.5089 15.3701C23.4413 15.3701 23.3737 15.3701 23.304 15.3701C23.304 15.2943 23.304 15.2185 23.304 15.1404C23.2364 15.1404 23.1688 15.1404 23.0991 15.1404C23.0991 15.0645 23.0991 14.9887 23.0991 14.9106C23.0315 14.9106 22.9638 14.9106 22.8942 14.9106C22.8942 14.8348 22.8942 14.759 22.8942 14.6809C22.8265 14.6809 22.7589 14.6809 22.6892 14.6809C22.6892 14.6051 22.6892 14.5293 22.6892 14.4511C22.6216 14.4511 22.554 14.4511 22.4843 14.4511C22.4843 14.3753 22.4843 14.2995 22.4843 14.2214C22.4167 14.2214 22.3491 14.2214 22.2794 14.2214C22.2794 14.1456 22.2794 14.0698 22.2794 13.9917C22.2118 13.9917 22.1441 13.9917 22.0745 13.9917C22.0745 13.9159 22.0745 13.84 22.0745 13.7619C22.0068 13.7619 21.9392 13.7619 21.8695 13.7619C21.8695 13.6861 21.8695 13.6103 21.8695 13.5322C21.8019 13.5322 21.7343 13.5322 21.6646 13.5322C21.6646 13.4564 21.6646 13.3806 21.6646 13.3025C21.597 13.3025 21.5294 13.3025 21.4597 13.3025C21.4597 13.2267 21.4597 13.1508 21.4597 13.0727C21.3921 13.0727 21.3244 13.0727 21.2548 13.0727C21.2548 12.9969 21.2548 12.9211 21.2548 12.843C21.1871 12.843 21.1195 12.843 21.0498 12.843C21.0498 12.7672 21.0498 12.6914 21.0498 12.6133C20.9822 12.6133 20.9146 12.6133 20.8449 12.6133C20.8449 12.5374 20.8449 12.4616 20.8449 12.3835C20.7773 12.3835 20.7097 12.3835 20.64 12.3835C20.64 12.3077 20.64 12.2319 20.64 12.1538C20.5724 12.1538 20.5047 12.1538 20.4351 12.1538C20.4351 12.078 20.4351 12.0022 20.4351 11.924C20.3674 11.924 20.2998 11.924 20.2301 11.924C20.2301 11.8482 20.2301 11.7724 20.2301 11.6943C20.1625 11.6943 20.0949 11.6943 20.0252 11.6943C20.0252 11.6185 20.0252 11.5427 20.0252 11.4646C19.9576 11.4646 19.89 11.4646 19.8203 11.4646C19.8203 11.3888 19.8203 11.3129 19.8203 11.2348C19.7189 11.2348 19.6174 11.2348 19.5129 11.2348C19.4791 11.0832 19.4453 10.9316 19.4104 10.7754C19.3428 10.7754 19.2752 10.7754 19.2055 10.7754C19.2055 10.6995 19.2055 10.6237 19.2055 10.5456C19.1041 10.5456 19.0027 10.5456 18.8981 10.5456C18.8643 10.4698 18.8305 10.394 18.7957 10.3159C15.8878 10.278 12.9799 10.2401 9.98395 10.201C9.95014 10.9212 9.91633 11.6415 9.88149 12.3835C9.78503 13.21 9.78503 13.21 9.73095 13.5965C9.67183 14.0261 9.62351 14.4566 9.57771 14.8882C9.56128 15.0412 9.54483 15.1942 9.52838 15.3472C9.52015 15.4239 9.51193 15.5005 9.50345 15.5795C9.36145 16.8972 9.21076 18.2071 8.95933 19.5054C9.02194 19.5193 9.08455 19.5332 9.14905 19.5475C9.60879 19.6994 9.89001 20.2043 10.1889 20.6038C10.4376 20.9348 10.7052 21.1896 11.0086 21.4581C11.4184 21.9797 11.4184 21.9797 11.4184 22.2622C11.4776 22.2693 11.5368 22.2764 11.5977 22.2837C11.923 22.4154 12.0464 22.6366 12.2381 22.9514C12.2381 23.0272 12.2381 23.103 12.2381 23.1812C12.3734 23.1812 12.5086 23.1812 12.648 23.1812C12.6818 23.3328 12.7156 23.4844 12.7504 23.6406C11.3809 23.6897 10.2412 23.5318 8.95933 22.9514C8.95439 23.0195 8.94944 23.0876 8.94435 23.1578C8.88431 23.9086 8.77655 24.639 8.64554 25.378C8.62646 25.4879 8.60737 25.5977 8.58771 25.7109C8.54123 25.9782 8.49433 26.2453 8.44702 26.5123C8.51042 26.5573 8.57382 26.6024 8.63914 26.6487C8.85687 26.8569 8.85687 26.8569 8.94952 27.1283C9.07339 27.4626 9.20871 27.6385 9.43653 27.8928C9.55334 28.0245 9.55334 28.0245 9.67251 28.1588C9.758 28.2534 9.84349 28.348 9.93157 28.4455C10.0215 28.5464 10.1115 28.6473 10.2042 28.7513C10.4505 29.0272 10.6974 29.3023 10.9447 29.5771C11.2031 29.8647 11.4607 30.1533 11.7184 30.4417C12.2062 30.9875 12.6948 31.5325 13.1837 32.0771C13.7403 32.6973 14.2961 33.3184 14.8518 33.9397C15.9947 35.2174 17.1387 36.4938 18.2834 37.7694C17.3503 38.6152 16.3284 39.3277 15.2992 40.0166C15.2264 40.0659 15.1537 40.1152 15.0787 40.166C15.0096 40.2116 14.9405 40.2572 14.8693 40.3042C14.8088 40.3444 14.7483 40.3846 14.6859 40.426C14.3539 40.5979 14.1023 40.6909 13.7503 40.5477C13.6733 40.4974 13.5963 40.4471 13.5169 40.3953C13.4299 40.3392 13.3428 40.2831 13.2532 40.2254C13.1612 40.1636 13.0693 40.1018 12.9746 40.0381C12.8312 39.9438 12.8312 39.9438 12.685 39.8477C11.892 39.32 11.1279 38.7533 10.3785 38.1513C10.1882 37.9986 9.99677 37.8477 9.80505 37.6972C9.09295 37.136 8.39961 36.5552 7.72979 35.9315C7.62875 35.8396 7.52771 35.7476 7.42361 35.6529C6.63841 34.9272 5.90892 34.144 5.18745 33.3398C5.09819 33.2408 5.00893 33.1418 4.91697 33.0398C4.01187 32.0203 3.21682 30.9242 2.50423 29.7287C2.41765 29.5861 2.41765 29.5861 2.32933 29.4406C0.674493 26.6347 -0.0111629 23.6582 0.0102511 20.3156C0.0103382 20.1207 0.0102885 19.9257 0.0101151 19.7307C0.0100281 19.2092 0.0118154 18.6877 0.0139799 18.1662C0.0159217 17.6183 0.0160839 17.0704 0.0164471 16.5225C0.0173966 15.4884 0.0199102 14.4544 0.0230088 13.4203C0.0264631 12.2416 0.0281401 11.0629 0.0296785 9.88416C0.0328781 7.46266 0.0382731 5.04118 0.0451472 2.6197C0.469587 2.41179 0.86173 2.22993 1.31712 2.13196C1.4193 2.10951 1.52149 2.08705 1.62678 2.06392C1.7346 2.04121 1.84241 2.0185 1.9535 1.9951C2.06667 1.97062 2.17984 1.94613 2.29643 1.9209C2.52825 1.87084 2.76013 1.82114 2.99208 1.77182C3.29209 1.70757 3.59163 1.64123 3.89107 1.57377C7.18133 0.838394 10.4595 0.623408 13.8067 0.624366Z" fill="#E0010E"/>
<path d="M18.7954 10.3162C18.8461 10.4299 18.8461 10.4299 18.8978 10.5459C18.9993 10.5459 19.1007 10.5459 19.2052 10.5459C19.2052 10.6217 19.2052 10.6975 19.2052 10.7756C19.2728 10.7756 19.3404 10.7756 19.4101 10.7756C19.4608 11.0031 19.4608 11.0031 19.5126 11.2351C19.614 11.2351 19.7155 11.2351 19.82 11.2351C19.82 11.3109 19.82 11.3867 19.82 11.4648C19.8876 11.4648 19.9552 11.4648 20.0249 11.4648C20.0249 11.5407 20.0249 11.6165 20.0249 11.6946C20.0925 11.6946 20.1601 11.6946 20.2298 11.6946C20.2298 11.7704 20.2298 11.8462 20.2298 11.9243C20.2974 11.9243 20.3651 11.9243 20.4347 11.9243C20.4347 12.0001 20.4347 12.0759 20.4347 12.1541C20.5024 12.1541 20.57 12.1541 20.6397 12.1541C20.6397 12.2299 20.6397 12.3057 20.6397 12.3838C20.7073 12.3838 20.7749 12.3838 20.8446 12.3838C20.8446 12.4596 20.8446 12.5354 20.8446 12.6135C20.9122 12.6135 20.9798 12.6135 21.0495 12.6135C21.0495 12.6893 21.0495 12.7652 21.0495 12.8433C21.1171 12.8433 21.1848 12.8433 21.2544 12.8433C21.2544 12.9191 21.2544 12.9949 21.2544 13.073C21.3221 13.073 21.3897 13.073 21.4594 13.073C21.4594 13.1488 21.4594 13.2246 21.4594 13.3027C21.527 13.3027 21.5946 13.3027 21.6643 13.3027C21.6643 13.3786 21.6643 13.4544 21.6643 13.5325C21.7319 13.5325 21.7995 13.5325 21.8692 13.5325C21.8692 13.6083 21.8692 13.6841 21.8692 13.7622C21.9368 13.7622 22.0045 13.7622 22.0741 13.7622C22.0741 13.838 22.0741 13.9138 22.0741 13.992C22.1418 13.992 22.2094 13.992 22.2791 13.992C22.2791 14.0678 22.2791 14.1436 22.2791 14.2217C22.3467 14.2217 22.4143 14.2217 22.484 14.2217C22.484 14.2975 22.484 14.3733 22.484 14.4514C22.5516 14.4514 22.6192 14.4514 22.6889 14.4514C22.6889 14.5272 22.6889 14.6031 22.6889 14.6812C22.7565 14.6812 22.8242 14.6812 22.8938 14.6812C22.8938 14.757 22.8938 14.8328 22.8938 14.9109C22.9615 14.9109 23.0291 14.9109 23.0988 14.9109C23.0988 14.9867 23.0988 15.0625 23.0988 15.1406C23.1664 15.1406 23.234 15.1406 23.3037 15.1406C23.3037 15.2164 23.3037 15.2923 23.3037 15.3704C23.3713 15.3704 23.4389 15.3704 23.5086 15.3704C23.5086 15.4462 23.5086 15.522 23.5086 15.6001C23.5762 15.6001 23.6438 15.6001 23.7135 15.6001C23.7135 15.6759 23.7135 15.7517 23.7135 15.8298C23.7811 15.8298 23.8488 15.8298 23.9184 15.8298C23.9184 15.9057 23.9184 15.9815 23.9184 16.0596C23.9861 16.0596 24.0537 16.0596 24.1234 16.0596C24.1234 16.1354 24.1234 16.2112 24.1234 16.2893C24.191 16.2893 24.2586 16.2893 24.3283 16.2893C24.3283 16.3651 24.3283 16.4409 24.3283 16.5191C24.3959 16.5191 24.4635 16.5191 24.5332 16.5191C24.5332 16.5949 24.5332 16.6707 24.5332 16.7488C24.6008 16.7488 24.6685 16.7488 24.7381 16.7488C24.7381 16.8246 24.7381 16.9004 24.7381 16.9785C24.8058 16.9785 24.8734 16.9785 24.9431 16.9785C24.9431 17.0543 24.9431 17.1302 24.9431 17.2083C25.0107 17.2083 25.0783 17.2083 25.148 17.2083C25.148 17.2841 25.148 17.3599 25.148 17.438C25.2156 17.438 25.2832 17.438 25.3529 17.438C25.3529 17.5138 25.3529 17.5896 25.3529 17.6677C25.4205 17.6677 25.4882 17.6677 25.5578 17.6677C25.5578 17.7436 25.5578 17.8194 25.5578 17.8975C25.6255 17.8975 25.6931 17.8975 25.7628 17.8975C25.7628 18.0491 25.7628 18.2007 25.7628 18.357C25.9318 18.3949 26.1009 18.4328 26.2751 18.4718C26.3089 18.5855 26.3427 18.6993 26.3775 18.8164C26.4452 18.8164 26.5128 18.8164 26.5825 18.8164C26.5825 18.8922 26.5825 18.9681 26.5825 19.0462C26.6501 19.0462 26.7177 19.0462 26.7874 19.0462C26.7874 19.122 26.7874 19.1978 26.7874 19.2759C26.855 19.2759 26.9226 19.2759 26.9923 19.2759C27.1396 19.4478 27.1396 19.4478 27.2997 19.6708C27.5195 19.9826 27.5195 19.9826 27.812 20.1948C27.812 20.2707 27.812 20.3465 27.812 20.4246C27.9134 20.4246 28.0149 20.4246 28.1194 20.4246C28.1284 20.9319 28.1338 21.4392 28.1386 21.9466C28.1412 22.0884 28.1437 22.2303 28.1464 22.3764C28.153 23.3114 28.0558 24.126 27.812 25.0193C27.7823 25.1329 27.7526 25.2465 27.7219 25.3635C27.1552 27.4778 26.1268 29.3003 24.9367 31.0356C24.8787 31.1202 24.8208 31.2049 24.7611 31.2922C24.4005 31.8078 24.0171 32.2768 23.5967 32.7321C23.3981 32.9542 23.2162 33.1866 23.0347 33.4263C22.2687 34.3995 21.6574 34.5866 20.5372 34.7831C20.5034 34.8969 20.4696 35.0106 20.4347 35.1277C20.2319 35.1277 20.029 35.1277 19.82 35.1277C19.82 35.2036 19.82 35.2794 19.82 35.3575C20.0228 35.3575 20.2257 35.3575 20.4347 35.3575C20.4855 35.6418 20.4855 35.6418 20.5372 35.9318C19.8462 36.5951 19.1603 37.2301 18.3855 37.7697C18.0561 37.6069 17.8347 37.4112 17.5802 37.1273C17.5029 37.0417 17.4256 36.956 17.346 36.8677C17.2622 36.7737 17.1784 36.6796 17.092 36.5827C17.003 36.4837 16.914 36.3847 16.8223 36.2827C16.5787 36.0114 16.3356 35.7396 16.0927 35.4674C15.9409 35.2975 15.789 35.1277 15.6371 34.9579C15.1071 34.3659 14.5776 33.7732 14.0486 33.18C13.5553 32.6268 13.0609 32.0749 12.5659 31.5236C12.1409 31.0502 11.7168 30.5759 11.2932 30.101C11.0402 29.8173 10.7869 29.534 10.5328 29.2516C10.2498 28.9369 9.9684 28.6204 9.68715 28.3037C9.60252 28.2101 9.5179 28.1165 9.43071 28.0201C9.35457 27.9338 9.27843 27.8474 9.19999 27.7585C9.13327 27.6838 9.06656 27.6092 8.99782 27.5322C8.85655 27.3167 8.85655 27.3167 8.85655 26.8572C8.68749 26.7814 8.51842 26.7056 8.34424 26.6275C8.73547 26.4813 8.8858 26.5745 9.2728 26.7208C10.3287 27.1182 11.2984 27.2436 12.4107 27.2377C12.5379 27.2371 12.6651 27.2364 12.7962 27.2358C14.7152 27.2073 16.5049 26.7155 17.9757 25.2491C18.5326 24.5973 18.9338 23.916 19.2052 23.0666C19.2418 22.9659 19.2784 22.8652 19.3161 22.7614C19.5929 21.6311 19.5823 19.9856 19.1027 18.9313C18.3625 17.4889 17.3349 16.658 15.9264 16.1745C15.4278 16.0473 14.925 15.9692 14.4179 15.8994C14.0164 15.8431 13.6481 15.7362 13.2624 15.6001C13.2496 14.7099 13.2496 14.7099 13.3649 14.4514C13.2634 14.4514 13.162 14.4514 13.0575 14.4514C13.0237 14.3377 12.9899 14.224 12.955 14.1068C14.8823 14.1068 16.8096 14.1068 18.7954 14.1068C18.7954 12.8559 18.7954 11.605 18.7954 10.3162Z" fill="#B4000F"/>
<path d="M9.98363 10.2013C12.8915 10.2013 15.7994 10.2013 18.7954 10.2013C18.7954 11.4522 18.7954 12.7031 18.7954 13.992C16.8342 13.992 14.8731 13.992 12.8526 13.992C12.8187 14.5985 12.7849 15.205 12.7501 15.8298C12.89 15.8258 13.0298 15.8219 13.174 15.8177C15.0423 15.7794 16.9139 16.0383 18.3471 17.5313C19.4115 18.8725 19.6175 20.3727 19.5366 22.0997C19.4162 23.4941 18.6257 24.7442 17.6939 25.6296C15.6703 27.3233 13.1553 27.5896 10.7077 27.2785C9.85331 27.1248 9.1102 26.8519 8.34424 26.3977C8.4273 25.9095 8.51062 25.4213 8.59399 24.9332C8.61757 24.7946 8.64114 24.656 8.66543 24.5132C8.68822 24.3799 8.711 24.2467 8.73447 24.1093C8.7554 23.9866 8.77633 23.8639 8.79789 23.7375C8.84543 23.473 8.89789 23.2126 8.95901 22.9517C9.38471 23.0068 9.70756 23.0795 10.0861 23.2963C10.7898 23.5483 11.4984 23.5681 12.2314 23.5691C12.3359 23.5719 12.4405 23.5747 12.5482 23.5776C13.3684 23.5812 14.0952 23.4224 14.7481 22.8368C15.1468 22.2409 15.1695 21.7274 15.1067 20.9989C14.9441 20.3948 14.6606 20.1546 14.1894 19.8538C13.4263 19.4229 12.6315 19.3729 11.7931 19.3796C11.6752 19.3798 11.6752 19.3798 11.555 19.38C11.3066 19.3807 11.0581 19.3821 10.8097 19.3836C10.6402 19.3842 10.4707 19.3847 10.3012 19.3852C9.88797 19.3864 9.47472 19.3884 9.06147 19.3908C9.03491 18.4764 9.13877 17.6028 9.25359 16.6985C9.29181 16.3897 9.32955 16.0809 9.36726 15.772C9.3945 15.5494 9.3945 15.5494 9.42229 15.3223C9.48361 14.8078 9.53756 14.2927 9.58659 13.7766C9.70027 12.5819 9.83205 11.3908 9.98363 10.2013Z" fill="#FCFAFA"/>
<path d="M8.95898 19.046C8.9928 19.1597 9.02661 19.2735 9.06145 19.3906C9.16288 19.3527 9.26432 19.3148 9.36883 19.2758C9.82639 19.252 10.2842 19.2544 10.7422 19.2545C10.9669 19.2542 11.1914 19.2521 11.4161 19.25C12.5577 19.2448 13.7938 19.3076 14.7353 20.1229C15.1418 20.5787 15.2205 20.9218 15.254 21.5516C15.2399 22.1769 15.0852 22.6143 14.6969 23.0664C14.0753 23.5425 13.4941 23.6568 12.7501 23.6408C12.6994 23.4133 12.6994 23.4133 12.6476 23.1813C12.5124 23.1813 12.3771 23.1813 12.2378 23.1813C12.0965 23.0094 12.0965 23.0094 11.9752 22.7864C11.7789 22.4227 11.7789 22.4227 11.4181 22.2623C11.3839 22.1092 11.3498 21.956 11.3156 21.8029C11.2142 21.765 11.1127 21.727 11.0082 21.688C10.7122 21.383 10.4484 21.0546 10.1885 20.7116C9.65795 19.9903 9.65795 19.9903 8.95898 19.5055C8.95898 19.3539 8.95898 19.2022 8.95898 19.046Z" fill="#B4010F"/>
<path d="M27.0947 2.39001C27.4667 2.42792 27.8386 2.46583 28.2218 2.50488C28.2218 9.17644 28.2218 15.848 28.2218 22.7217C28.188 22.7217 28.1542 22.7217 28.1193 22.7217C28.1193 21.9636 28.1193 21.2055 28.1193 20.4244C28.0179 20.4244 27.9165 20.4244 27.812 20.4244C27.812 20.3485 27.812 20.2727 27.812 20.1946C27.8796 20.1946 27.9472 20.1946 28.0169 20.1946C28.0163 20.1093 28.0156 20.024 28.015 19.9361C27.9999 17.8605 27.9854 15.785 27.9715 13.7094C27.9648 12.7057 27.9579 11.7019 27.9505 10.6982C27.944 9.82338 27.938 8.94856 27.9323 8.07373C27.9294 7.61049 27.9262 7.14726 27.9226 6.68403C27.9192 6.24798 27.9163 5.81193 27.9137 5.37588C27.9127 5.21589 27.9115 5.05591 27.9101 4.89592C27.9083 4.67732 27.9071 4.4587 27.906 4.24009C27.9051 4.11779 27.9043 3.9955 27.9034 3.86949C27.9139 3.55472 27.9531 3.27055 28.0169 2.96436C27.814 2.96436 27.6111 2.96436 27.4021 2.96436C27.4021 2.85064 27.4021 2.73692 27.4021 2.61975C27.3007 2.54394 27.1992 2.46813 27.0947 2.39001Z" fill="#DD141B"/>
<path d="M12.8525 13.9913C14.8137 13.9913 16.7748 13.9913 18.7953 13.9913C18.7953 14.0292 18.7953 14.0671 18.7953 14.1062C16.9018 14.1441 15.0083 14.182 13.0575 14.2211C13.0575 14.2969 13.0575 14.3727 13.0575 14.4508C13.1589 14.4508 13.2603 14.4508 13.3649 14.4508C13.331 14.8299 13.2972 15.2089 13.2624 15.5995C13.4653 15.5995 13.6681 15.5995 13.8772 15.5995C13.911 15.6753 13.9448 15.7511 13.9796 15.8292C13.5739 15.8292 13.1681 15.8292 12.7501 15.8292C12.7412 15.1828 12.7697 14.6415 12.8525 13.9913Z" fill="#C22127"/>
<path d="M21.9725 34.4382C21.5859 35.0071 21.1622 35.4073 20.6405 35.8166C20.5729 35.7787 20.5052 35.7408 20.4356 35.7018C20.4356 35.588 20.4356 35.4743 20.4356 35.3572C20.3341 35.3951 20.2327 35.433 20.1282 35.472C20.0267 35.4341 19.9253 35.3962 19.8208 35.3572C19.8208 35.2813 19.8208 35.2055 19.8208 35.1274C20.0237 35.1274 20.2265 35.1274 20.4356 35.1274C20.4694 34.9758 20.5032 34.8242 20.538 34.6679C21.5022 34.4042 21.5022 34.4042 21.9725 34.4382Z" fill="#AE0613"/>
</svg>
