<svg xmlns="http://www.w3.org/2000/svg" xmlns:xlink="http://www.w3.org/1999/xlink"><defs><symbol viewBox="0 0 40 35" id="ic-arrow-left"><path d="M37.5 20c.7 0 1.3-.3 1.8-.7.5-.5.7-1.1.7-1.8s-.3-1.3-.7-1.8c-.5-.5-1.1-.7-1.8-.7h-29L19.3 4.3c.2-.2.4-.5.5-.8.1-.3.2-.6.2-1s-.1-.7-.2-1c-.1-.3-.3-.6-.5-.8-.2-.2-.5-.4-.8-.5-.3-.1-.6-.2-1-.2-.3 0-.7.1-1 .2-.3.1-.6.3-.8.5l-15 15c-.2.2-.4.5-.5.8-.1.3-.2.6-.2 1s.1.7.2 1c.1.3.3.6.5.8l15 15c.2.2.5.4.8.5.3.1.6.2 1 .2.3 0 .7-.1 1-.2.3-.1.6-.3.8-.5.2-.2.4-.5.5-.8.1-.3.2-.6.2-1s-.1-.7-.2-1c-.1-.3-.3-.6-.5-.8L8.5 20h29z" /></symbol><symbol viewBox="0 0 40 35" id="ic-arrow-right"><path d="M2.5 15c-.7 0-1.3.3-1.8.7-.4.5-.7 1.1-.7 1.8s.3 1.3.7 1.8c.5.4 1.1.7 1.8.7h29L20.7 30.7c-.2.2-.4.5-.5.8-.1.3-.2.6-.2 1s.1.7.2 1c.1.3.3.6.5.8.2.2.5.4.8.5.3.1.6.2 1 .2.3 0 .7-.1 1-.2.3-.1.6-.3.8-.5l15-15c.2-.2.4-.5.5-.8.1-.3.2-.6.2-1s-.1-.7-.2-1c-.1-.3-.3-.6-.5-.8l-15-15c-.2-.2-.5-.4-.8-.5-.3-.1-.6-.2-1-.2-.3 0-.7.1-1 .2-.3.1-.6.3-.8.5-.2.2-.4.5-.5.8-.1.3-.2.6-.2 1s.1.7.2 1c.1.3.3.6.5.8L31.5 15h-29z" /></symbol><symbol viewBox="0 0 477.156 477.156" id="ic-call"><path d="M475.009 380.316l-2.375-7.156c-5.625-16.719-24.062-34.156-41-38.75l-62.688-17.125c-17-4.625-41.25 1.594-53.688 14.031l-22.688 22.688c-82.453-22.28-147.109-86.938-169.359-169.375L145.9 161.94c12.438-12.438 18.656-36.656 14.031-53.656l-17.094-62.719c-4.625-16.969-22.094-35.406-38.781-40.969L96.9 2.19c-16.719-5.563-40.563.063-53 12.5L9.962 48.659C3.899 54.69.024 71.94.024 72.003c-1.187 107.75 41.063 211.562 117.281 287.781 76.031 76.031 179.454 118.219 286.891 117.313.562 0 18.312-3.813 24.375-9.845l33.938-33.938c12.437-12.436 18.062-36.279 12.5-52.998z" /></symbol><symbol viewBox="0 0 50 50" id="ic-info"><path d="M48.1 15.4c-1.3-3-3.1-5.8-5.4-8.1-2.3-2.3-5.1-4.2-8.1-5.4S28.3 0 25 0s-6.5.6-9.6 1.9c-3 1.3-5.8 3.1-8.1 5.4-2.3 2.3-4.1 5.1-5.4 8.1C.6 18.5 0 21.7 0 25s.6 6.5 1.9 9.6 3.1 5.8 5.4 8.1c2.3 2.3 5.1 4.2 8.1 5.4 3 1.3 6.3 1.9 9.6 1.9s6.5-.6 9.6-1.9c3-1.3 5.8-3.1 8.1-5.4 2.3-2.3 4.2-5.1 5.4-8.1 1.3-3 1.9-6.3 1.9-9.6s-.6-6.5-1.9-9.6zm-2.8 18c-1.1 2.7-2.7 5.1-4.8 7.1-2 2-4.5 3.7-7.1 4.8-2.6 1.1-5.5 1.7-8.4 1.7-2.9 0-5.8-.6-8.4-1.7-2.7-1.1-5.1-2.7-7.1-4.8-2-2-3.7-4.5-4.8-7.1C3.6 30.8 3 27.9 3 25c0-2.9.6-5.8 1.7-8.4 1.1-2.7 2.7-5.1 4.8-7.1 2-2 4.5-3.7 7.1-4.8C19.2 3.6 22.1 3 25 3c2.9 0 5.8.6 8.4 1.7 2.7 1.1 5.1 2.7 7.1 4.8 2 2 3.7 4.5 4.8 7.1 1.1 2.7 1.7 5.5 1.7 8.4 0 2.9-.6 5.8-1.7 8.4z" /><path d="M25 40c.8 0 1.5-.3 2-.8s.8-1.3.8-2-.3-1.5-.8-2-1.3-.8-2-.8-1.5.3-2 .8-.8 1.3-.8 2 .3 1.5.8 2c.5.4 1.2.8 2 .8z" fill-rule="evenodd" clip-rule="evenodd" /><path d="M23 11.7h4v18h-4z" /></symbol><symbol viewBox="0 0 32 32" id="ic-instagramm"><path fill-rule="evenodd" clip-rule="evenodd" d="M9.432.107c1.694-.078 2.234-.095 6.549-.095s4.855.018 6.547.095c1.692.077 2.848.347 3.858.738A7.815 7.815 0 0129.2 2.679 7.76 7.76 0 0131.03 5.49c.393 1.011.662 2.166.74 3.856.078 1.697.095 2.237.095 6.55 0 4.315-.019 4.855-.095 6.549-.077 1.689-.347 2.844-.74 3.855a7.792 7.792 0 01-1.83 2.814 7.787 7.787 0 01-2.814 1.831c-1.01.393-2.166.662-3.855.74-1.695.078-2.235.095-6.55.095-4.315 0-4.855-.019-6.549-.095-1.69-.077-2.844-.347-3.855-.74a7.793 7.793 0 01-2.815-1.83A7.786 7.786 0 01.93 26.301C.539 25.29.27 24.135.192 22.446c-.078-1.697-.095-2.237-.095-6.55 0-4.315.018-4.855.095-6.547C.269 7.656.539 6.5.93 5.49a7.792 7.792 0 011.834-2.813A7.786 7.786 0 015.575.845C6.586.454 7.741.185 9.431.107h.001zM22.4 2.967c-1.675-.077-2.177-.093-6.418-.093s-4.744.016-6.419.092c-1.55.07-2.39.33-2.95.547-.74.29-1.27.631-1.827 1.187a4.927 4.927 0 00-1.187 1.827c-.218.56-.476 1.4-.547 2.95-.076 1.675-.092 2.178-.092 6.419s.016 4.744.092 6.418c.07 1.55.33 2.39.547 2.95a4.93 4.93 0 001.187 1.827 4.93 4.93 0 001.827 1.187c.56.218 1.4.477 2.95.548 1.675.076 2.176.092 6.419.092 4.242 0 4.743-.016 6.418-.092 1.55-.071 2.39-.33 2.95-.548a4.931 4.931 0 001.827-1.187 4.93 4.93 0 001.187-1.826c.218-.56.477-1.401.548-2.95.076-1.675.092-2.178.092-6.42 0-4.24-.016-4.743-.092-6.418-.071-1.55-.33-2.39-.548-2.95A4.933 4.933 0 0027.176 4.7a4.928 4.928 0 00-1.826-1.187c-.56-.218-1.401-.476-2.95-.547zm-8.447 17.825a5.297 5.297 0 005.776-8.643 5.3 5.3 0 10-5.776 8.644zm-3.744-10.67A8.165 8.165 0 1121.754 21.67a8.165 8.165 0 01-11.546-11.546zm15.748-1.175a1.93 1.93 0 10-2.648-2.808 1.93 1.93 0 002.648 2.808z" /></symbol><symbol viewBox="0 0 36 37" id="ic-solid"><path d="M18 .75C8.527.75.75 8.134.75 17.281c0 4.873 2.257 9.203 5.75 12.219v6.648l6.38-3.19c1.621.49 3.317.855 5.12.855 9.473 0 17.25-7.385 17.25-16.532S27.473.75 18 .75zm0 2.875c7.991 0 14.375 6.132 14.375 13.656 0 7.524-6.384 13.657-14.375 13.657-1.718 0-3.358-.327-4.896-.854l-.584-.18-3.145 1.573v-3.235l-.54-.45c-3.189-2.514-5.21-6.282-5.21-10.51C3.625 9.756 10.009 3.624 18 3.624zm-1.617 9.12l-8.67 9.164 7.771-4.313 4.133 4.448 8.58-9.3-7.592 4.268-4.222-4.268z" /></symbol><symbol viewBox="0 0 27 23" id="ic-telegram"><path d="M26.172 2.036l-3.96 18.731c-.3 1.322-1.079 1.65-2.186 1.029l-6.035-4.46-2.912 2.809c-.323.323-.592.593-1.213.593l.434-6.163L21.485 4.44c.486-.434-.106-.676-.756-.24L6.901 12.93.948 11.063c-1.295-.405-1.318-1.298.27-1.922L24.503.145c1.078-.405 2.021.24 1.67 1.892z" /></symbol><symbol viewBox="0 0 45 45" id="ic-tick"><path d="M22.5 44.584C10.303 44.584.417 34.697.417 22.5.417 10.304 10.303.417 22.5.417S44.583 10.304 44.583 22.5c0 12.197-9.886 22.084-22.083 22.084zm0-4.417a17.667 17.667 0 100-35.333 17.667 17.667 0 000 35.333zm-2.202-8.833l-9.37-9.37 3.123-3.123 6.247 6.247 12.49-12.492 3.125 3.123-15.615 15.615z" /></symbol><symbol viewBox="0 0 30 30" id="ic-tick-square"><path d="M26.667 26.667H3.333V3.333H20V0H3.333A3.322 3.322 0 000 3.333v23.334A3.333 3.333 0 003.333 30h23.334A3.333 3.333 0 0030 26.667V13.333h-3.333v13.334zM8.183 11.8l-2.35 2.367 7.5 7.5L30 5l-2.35-2.367L13.333 16.95l-5.15-5.15z" /></symbol><symbol viewBox="0 0 31 31" id="ic-whatchapp"><path d="M15.184.24C6.953.24.244 6.933.244 15.146c0 2.632.694 5.189 1.99 7.445l-2.11 7.731 7.914-2.076a14.97 14.97 0 007.146 1.82c8.231 0 14.94-6.693 14.94-14.905 0-3.986-1.553-7.731-4.372-10.544A14.8 14.8 0 0015.184.24zm.015 2.512c3.316 0 6.422 1.293 8.774 3.64a12.37 12.37 0 013.633 8.769c0 6.828-5.578 12.378-12.422 12.378-2.231 0-4.417-.586-6.317-1.73l-.452-.255-4.704 1.233 1.252-4.572-.302-.481a12.294 12.294 0 01-1.9-6.588C2.778 8.317 8.34 2.752 15.2 2.752zM9.892 8.257c-.24 0-.648.09-.995.466-.331.376-1.311 1.294-1.311 3.114 0 1.835 1.342 3.595 1.507 3.85.211.256 2.654 4.016 6.407 5.61.89.406 1.583.632 2.126.798.89.285 1.704.24 2.352.15.723-.105 2.2-.902 2.517-1.775.317-.872.317-1.61.226-1.775-.105-.15-.346-.24-.723-.406-.377-.21-2.216-1.113-2.548-1.233-.347-.12-.558-.18-.844.18-.241.376-.965 1.219-1.176 1.46-.226.255-.437.285-.799.105-.392-.196-1.598-.587-3.015-1.85-1.116-.993-1.854-2.211-2.08-2.587-.181-.361-.015-.587.165-.753.166-.165.407-.436.558-.661.196-.21.256-.376.377-.617.12-.256.06-.466-.03-.647-.09-.165-.844-2.03-1.16-2.767-.302-.722-.604-.632-.845-.647-.211 0-.452-.015-.709-.015z" /></symbol></defs></svg>